<?xml version="1.0" standalone="no"?>
<!DOCTYPE svg PUBLIC "-//W3C//DTD SVG 20010904//EN"
 "http://www.w3.org/TR/2001/REC-SVG-20010904/DTD/svg10.dtd">
<svg version="1.0" xmlns="http://www.w3.org/2000/svg"
 width="75.000000pt" height="75.000000pt" viewBox="0 0 75.000000 75.000000"
 preserveAspectRatio="xMidYMid meet">

<g transform="translate(0.000000,75.000000) scale(0.100000,-0.100000)"
fill="#000000" stroke="none">
<path d="M197 542 c-10 -10 -17 -25 -17 -33 0 -8 32 -46 70 -84 l70 -69 -70
-71 c-69 -69 -82 -96 -57 -112 29 -19 55 -7 120 56 l67 65 68 -65 c64 -63 90
-75 120 -56 24 16 11 43 -58 112 l-70 70 72 79 c74 81 78 93 35 120 -14 9 -30
-2 -92 -64 l-75 -74 -73 72 c-40 39 -77 72 -83 72 -6 0 -18 -8 -27 -18z"/>
</g>
</svg>
